# Blender v2.79 (sub 4) OBJ File: ''
# www.blender.org
mtllib ES_CAT_BCN_hotelarts.mtl
o Cube.001
v -10.475707 66.987511 8.101151
v -10.475707 86.987511 8.101151
v -10.475707 66.987511 -11.898849
v -10.475707 86.987511 -11.898849
v 9.524293 66.987511 8.101151
v 9.524293 86.987511 8.101151
v 9.524293 66.987511 -11.898849
v 9.524293 86.987511 -11.898849
vt 0.000100 0.999900
vt 0.000100 0.000100
vt 0.995663 0.008165
vt 0.999900 0.999900
vt 0.000100 0.999900
vt 0.000100 0.000100
vt 0.999900 0.000100
vt 0.999900 0.999900
vt 0.000000 0.000000
vt 1.000000 0.000000
vt 1.000000 1.000000
vt 0.000000 1.000000
vt 0.000000 0.000000
vt 1.000000 0.000000
vt 1.000000 1.000000
vt 0.000000 1.000000
vt 0.000000 0.000000
vt 1.000000 0.000000
vt 1.000000 1.000000
vt 0.000000 0.000000
vt 1.000000 0.000000
vt 0.000000 1.000000
vn -1.0000 0.0000 0.0000
vn 0.0000 0.0000 -1.0000
vn 1.0000 0.0000 0.0000
vn 0.0000 0.0000 1.0000
vn 0.0000 -1.0000 0.0000
vn 0.0000 1.0000 0.0000
usemtl Material.001
s off
f 1/1/1 2/2/1 4/3/1 3/4/1
f 3/5/2 4/6/2 8/7/2 7/8/2
f 7/9/3 8/10/3 6/11/3 5/12/3
f 5/13/4 6/14/4 2/15/4 1/16/4
f 3/17/5 7/18/5 5/19/5 1/16/5
f 8/20/6 4/21/6 2/15/6 6/22/6
