# Blender v2.79 (sub 4) OBJ File: ''
# www.blender.org
mtllib ES_CAT_BCN_hotelarts.mtl
o Cube.001
v -10.475707 66.987511 8.101151
v -10.475707 86.987511 8.101151
v -10.475707 66.987511 -11.898849
v -10.475707 86.987511 -11.898849
v 9.524293 66.987511 8.101151
v 9.524293 86.987511 8.101151
v 9.524293 66.987511 -11.898849
v 9.524293 86.987511 -11.898849
vt 0.000100 0.999900
vt 0.000100 0.000100
vt 0.995663 0.008165
vt 0.999900 0.999900
vt 0.000100 0.999900
vt 0.000100 0.000100
vt 0.999900 0.000100
vt 0.999900 0.999900
vt 0.000000 0.000000
vt 1.000000 0.000000
vt 1.000000 1.000000
vt 0.000000 1.000000
vt 0.000000 0.000000
vt 1.000000 0.000000
vt 1.000000 1.000000
vt 0.000000 1.000000
vt 0.000000 0.000000
vt 1.000000 0.000000
vt 1.000000 1.000000
vt 0.000000 0.000000
vt 1.000000 0.000000
vt 0.000000 1.000000
vn -1.0000 0.0000 0.0000
vn 0.0000 0.0000 -1.0000
vn 1.0000 0.0000 0.0000
vn 0.0000 0.0000 1.0000
vn 0.0000 -1.0000 0.0000
vn 0.0000 1.0000 0.0000
usemtl Material.001
s off
f 1/1/1 2/2/1 4/3/1 3/4/1
f 3/5/2 4/6/2 8/7/2 7/8/2
f 7/9/3 8/10/3 6/11/3 5/12/3
f 5/13/4 6/14/4 2/15/4 1/16/4
f 3/17/5 7/18/5 5/19/5 1/16/5
f 8/20/6 4/21/6 2/15/6 6/22/6
o Cube
v -23.386440 -76.933846 22.528788
v -23.386440 77.066154 22.528788
v -23.386440 -76.933846 -25.471212
v -23.386440 77.066154 -25.471212
v 24.613560 -76.933846 22.528788
v 24.613560 77.066154 22.528788
v 24.613560 -76.933846 -25.471212
v 24.613560 77.066154 -25.471212
vt 0.942910 0.006517
vt 0.937196 0.987066
vt 0.062804 0.993560
vt 0.039947 0.009763
vt 0.971482 -0.009717
vt 0.982910 0.987066
vt -0.005767 0.987066
vt 0.034232 -0.017834
vt 0.999947 0.000053
vt 0.999947 0.998400
vt 0.000053 0.998400
vt 0.000053 0.000053
vt 0.999947 0.000053
vt 0.982804 0.998400
vt 0.022910 1.000023
vt 0.000053 0.000053
vt 0.000000 0.000000
vt 0.000000 0.000000
vt 0.000000 0.000000
vt 0.000000 0.000000
vt 0.000000 0.000000
vt 0.000000 0.000000
vt 0.000000 0.000000
vt 0.000000 0.000000
vn -1.0000 0.0000 0.0000
vn 0.0000 0.0000 -1.0000
vn 1.0000 0.0000 0.0000
vn 0.0000 0.0000 1.0000
vn 0.0000 -1.0000 0.0000
vn 0.0000 1.0000 0.0000
usemtl Material
s off
f 9/23/7 10/24/7 12/25/7 11/26/7
f 11/27/8 12/28/8 16/29/8 15/30/8
f 15/31/9 16/32/9 14/33/9 13/34/9
f 13/35/10 14/36/10 10/37/10 9/38/10
f 11/39/11 15/40/11 13/41/11 9/42/11
f 16/43/12 12/44/12 10/45/12 14/46/12
