# Blender v2.80 (sub 35) OBJ File: 'ES_CAT_BCN_hotearts.blend'
# www.blender.org
mtllib ES_CAT_BCN_torremapfre.mtl
o Cube.002
v -0.060645 -0.250358 3.246697
v -0.060645 15.149642 3.246699
v -3.454758 15.149643 -0.147413
v -3.454758 -0.250357 -0.147416
v -0.060645 15.149644 -3.541526
v -0.060645 -0.250356 -3.541529
v 3.333468 15.149643 -0.147413
v 3.333467 -0.250357 -0.147416
vt 0.942910 0.006517
vt 0.937196 0.987066
vt 0.062804 0.993560
vt 0.039947 0.009763
vt 0.971482 -0.009717
vt 0.982910 0.987066
vt -0.005767 0.987066
vt 0.034232 -0.017834
vt 0.999947 0.000053
vt 0.999947 0.998400
vt 0.000053 0.998400
vt 0.000053 0.000053
vt 0.999947 0.000053
vt 0.982804 0.998400
vt 0.022910 1.000023
vt 0.000053 0.000053
vt 0.000000 0.000000
vt 0.000000 0.000000
vt 0.000000 0.000000
vt 0.000000 0.000000
vt 0.000000 0.000000
vt 0.000000 0.000000
vt 0.000000 0.000000
vt 0.000000 0.000000
vn -0.7071 -0.0000 0.7071
vn -0.7071 0.0000 -0.7071
vn 0.7071 0.0000 -0.7071
vn 0.7071 -0.0000 0.7071
vn 0.0000 -1.0000 -0.0000
vn 0.0000 1.0000 0.0000
usemtl Material.002
s 1
f 1/1/1 2/2/1 3/3/1 4/4/1
f 4/5/2 3/6/2 5/7/2 6/8/2
f 6/9/3 5/10/3 7/11/3 8/12/3
f 8/13/4 7/14/4 2/15/4 1/16/4
f 4/17/5 6/18/5 8/19/5 1/20/5
f 5/21/6 3/22/6 2/23/6 7/24/6
o Cube.001
v -0.167906 14.897713 1.313585
v -0.167905 16.397713 1.313585
v -1.582119 16.397713 -0.100628
v -1.582119 14.897713 -0.100629
v -0.167905 16.397713 -1.514842
v -0.167906 14.897713 -1.514842
v 1.246308 16.397713 -0.100628
v 1.246308 14.897713 -0.100629
vt 1.009028 -0.011211
vt 0.999391 0.990113
vt -0.010289 1.002102
vt -0.006052 0.012962
vt 1.000100 -0.011211
vt 0.988195 0.988989
vt 0.005853 0.988989
vt -0.006052 -0.022322
vt 0.996728 0.000000
vt 1.000000 0.996535
vt -0.001574 1.000000
vt 0.000000 0.010884
vt 0.994047 0.011111
vt 0.988095 0.977778
vt 0.000000 0.988889
vt -0.000000 0.011111
vt 0.000000 0.000000
vt 1.000000 0.000000
vt 1.000000 1.000000
vt 0.000000 1.000000
vt 0.000000 0.000000
vt 1.000000 0.000000
vt 1.000000 1.000000
vt 0.000000 1.000000
vn -0.7071 -0.0000 0.7071
vn -0.7071 0.0000 -0.7071
vn 0.7071 0.0000 -0.7071
vn 0.7071 -0.0000 0.7071
vn 0.0000 -1.0000 0.0000
vn 0.0000 1.0000 -0.0000
usemtl Material.004
s 1
f 9/25/7 10/26/7 11/27/7 12/28/7
f 12/29/8 11/30/8 13/31/8 14/32/8
f 14/33/9 13/34/9 15/35/9 16/36/9
f 16/37/10 15/38/10 10/39/10 9/40/10
f 12/41/11 14/42/11 16/43/11 9/44/11
usemtl Material.005
f 13/45/12 11/46/12 10/47/12 15/48/12
