# Blender v2.80 (sub 35) OBJ File: ''
# www.blender.org
mtllib ES_CAT_BCN_torremapfre.mtl
o Cube.001
v -1.662185 152.383453 13.003846
v -1.662175 162.383453 13.003850
v -15.662181 162.383453 -0.996147
v -15.662181 152.383453 -0.996160
v -1.662175 162.383453 -14.996152
v -1.662185 152.383453 -14.996156
v 12.337821 162.383453 -0.996147
v 12.337821 152.383453 -0.996160
vt 1.002037 0.011300
vt 0.987901 1.019236
vt 0.000000 0.966302
vt 0.000000 0.014362
vt 1.002037 0.033698
vt 0.981901 1.030435
vt -0.002037 0.999900
vt 0.012099 -0.019237
vt 1.000000 0.000000
vt 1.000000 1.000000
vt 0.000000 0.999899
vt 0.000000 0.000000
vt 0.990038 -0.011099
vt 0.981901 0.985638
vt -0.014036 0.966302
vt -0.005900 -0.030435
vt 0.000000 0.000000
vt 0.995505 0.999786
vt 0.000000 1.000000
vt 0.000073 0.999927
vt 0.000073 0.000073
vt 1.063830 0.000073
vt 1.063830 0.999926
vn -0.7071 -0.0000 0.7071
vn -0.7071 0.0000 -0.7071
vn 0.7071 0.0000 -0.7071
vn 0.7071 -0.0000 0.7071
vn 0.0000 -1.0000 0.0000
vn 0.0000 1.0000 0.0000
g Cube.001_Cube.001_None
usemtl None
s 1
f 1/1/1 2/2/1 3/3/1 4/4/1
f 4/5/2 3/6/2 5/7/2 6/8/2
f 6/9/3 5/10/3 7/11/3 8/12/3
f 8/13/4 7/14/4 2/15/4 1/16/4
g Cube.001_Cube.001_None_NONE
usemtl None_NONE
f 4/17/5 6/9/5 8/18/5 1/19/5
f 5/20/6 3/21/6 2/22/6 7/23/6
o Cube.002
v -0.598568 -0.675722 32.044998
v -0.598568 153.324280 32.045048
v -34.098564 153.324280 -1.454941
v -34.098564 -0.675712 -1.455001
v -0.598568 153.324280 -34.954941
v -0.598568 -0.675700 -34.954998
v 32.901428 153.324280 -1.454941
v 32.901421 -0.675712 -1.455001
vt 0.971721 0.000055
vt 0.940471 0.998321
vt 0.000055 0.999945
vt 0.000056 0.000056
vt 0.971482 -0.009717
vt 0.982910 0.987066
vt -0.005767 0.987066
vt 0.034232 -0.017834
vt 0.999947 0.000053
vt 0.999947 0.998400
vt 0.000053 0.998400
vt 0.000053 0.000053
vt 0.953069 0.999217
vt 0.000056 1.000840
vt 0.000055 0.000055
vt 0.999945 0.000055
vt 0.000000 0.000000
vt 0.000000 0.000000
vt 0.000000 0.000000
vt 0.000000 0.000000
vt 0.999900 0.000100
vt 0.999900 0.999900
vt 0.000100 0.999900
vt 0.000100 0.000100
vn -0.7071 -0.0000 0.7071
vn -0.7071 0.0000 -0.7071
vn 0.7071 0.0000 -0.7071
vn 0.7071 -0.0000 0.7071
vn 0.0000 -1.0000 -0.0000
vn 0.0000 1.0000 0.0000
g Cube.002_Cube.002_Material.001
usemtl Material.001
s 1
f 9/24/7 10/25/7 11/26/7 12/27/7
f 12/28/8 11/29/8 13/30/8 14/31/8
f 14/32/9 13/33/9 15/34/9 16/35/9
f 16/36/10 15/37/10 10/38/10 9/39/10
f 12/40/11 14/41/11 16/42/11 9/43/11
f 13/44/12 11/45/12 10/46/12 15/47/12
