# Blender v2.79 (sub 0) OBJ File: ''
# www.blender.org
mtllib ES_CAT_BCN_torremapfre.mtl
o Cube
v 1.000000 -1.000000 -1.000000
v 1.000000 -1.000000 1.000000
v -1.000000 -1.000000 1.000000
v -1.000000 -1.000000 -1.000000
v 1.000000 1.000000 -0.999999
v 0.999999 1.000000 1.000001
v -1.000000 1.000000 1.000000
v -1.000000 1.000000 -1.000000
vt 0.000000 0.000000
vt 0.000000 0.000000
vt 0.000000 0.000000
vt 0.000000 0.000000
vt 0.000000 0.000000
vt 0.000000 0.000000
vt 0.000000 0.000000
vt 0.000000 0.000000
vt 0.535709 0.000073
vt 0.535709 0.999927
vt 0.000073 0.999927
vt 0.000073 0.000073
vn 0.0000 -1.0000 0.0000
vn 0.0000 1.0000 0.0000
vn -0.0000 -0.0000 1.0000
vn -1.0000 -0.0000 -0.0000
vn 0.0000 0.0000 -1.0000
vn 1.0000 0.0000 0.0000
usemtl Material
s off
f 1/1/1 2/2/1 3/3/1 4/4/1
f 5/5/2 8/6/2 7/7/2 6/8/2
f 2/2/3 6/8/3 7/7/3 3/3/3
f 3/3/4 7/7/4 8/6/4 4/4/4
f 5/5/5 1/1/5 4/4/5 8/6/5
usemtl Material_1.png
f 1/9/6 5/10/6 6/11/6 2/12/6
