# Blender v2.79 (sub 0) OBJ File: ''
# www.blender.org
mtllib ES_CAT_BCN_torremapfre.mtl
o Cube.001
v -1.662185 152.383453 13.003821
v -1.662175 162.383453 13.003823
v -15.662181 162.383453 -0.996173
v -15.662181 152.383453 -0.996185
v -1.662175 162.383453 -14.996179
v -1.662185 152.383453 -14.996181
v 12.337821 162.383453 -0.996173
v 12.337821 152.383453 -0.996185
vt 0.000073 0.000073
vt 1.011899 0.000074
vt 1.015679 1.011111
vt 0.000073 0.999927
vt 0.990576 1.004544
vt 0.995663 0.008165
vt 0.005257 0.009761
vt 0.000100 0.999900
vt 1.003225 1.000100
vt 0.999900 0.000100
vt -0.019148 0.004344
vt 0.000000 0.000000
vt 1.000000 0.000000
vt 0.991915 1.002761
vt 0.000000 1.000000
vt 0.000000 0.000000
vt 1.000000 0.000000
vt 0.995505 0.999786
vt 0.000000 1.000000
vt 0.000000 0.000000
vt 1.000000 0.000000
vt 0.984239 1.005004
vt 0.000000 1.000000
vn 0.7071 -0.0000 0.7071
vn -0.7071 -0.0000 0.7071
vn -0.7071 0.0000 -0.7071
vn 0.7071 0.0000 -0.7071
vn 0.0000 -1.0000 0.0000
vn 0.0000 1.0000 0.0000
usemtl Material.005
s 1
f 8/1/1 7/2/1 2/3/1 1/4/1
usemtl Material.005_NONE
f 1/4/2 2/5/2 3/6/2 4/7/2
f 4/8/3 3/9/3 5/10/3 6/11/3
f 6/12/4 5/13/4 7/14/4 8/15/4
f 4/16/5 6/17/5 8/18/5 1/19/5
f 5/20/6 3/21/6 2/22/6 7/23/6
o Cube.002
v -0.598568 -0.675717 32.044998
v -0.598568 153.324280 32.045021
v -34.098564 153.324280 -1.454966
v -34.098564 -0.675712 -1.455001
v -0.598568 153.324280 -34.954967
v -0.598568 -0.675706 -34.954998
v 32.901428 153.324280 -1.454966
v 32.901421 -0.675712 -1.455001
vt 0.942910 0.006517
vt 0.937196 0.987066
vt 0.062804 0.993560
vt 0.039947 0.009763
vt 0.971482 -0.009717
vt 0.982910 0.987066
vt -0.005767 0.987066
vt 0.034232 -0.017834
vt 0.999947 0.000053
vt 0.999947 0.998400
vt 0.000053 0.998400
vt 0.000053 0.000053
vt 0.999947 0.000053
vt 0.982804 0.998400
vt 0.022910 1.000023
vt 0.000053 0.000053
vt 0.000000 0.000000
vt 0.000000 0.000000
vt 0.000000 0.000000
vt 0.000000 0.000000
vt 0.000000 0.000000
vt 0.000000 0.000000
vt 0.000000 0.000000
vt 0.000000 0.000000
vn -0.7071 -0.0000 0.7071
vn -0.7071 0.0000 -0.7071
vn 0.7071 0.0000 -0.7071
vn 0.7071 -0.0000 0.7071
vn 0.0000 -1.0000 -0.0000
vn 0.0000 1.0000 0.0000
usemtl Material.001
s 1
f 9/24/7 10/25/7 11/26/7 12/27/7
f 12/28/8 11/29/8 13/30/8 14/31/8
f 14/32/9 13/33/9 15/34/9 16/35/9
f 16/36/10 15/37/10 10/38/10 9/39/10
f 12/40/11 14/41/11 16/42/11 9/43/11
f 13/44/12 11/45/12 10/46/12 15/47/12
