# Blender v2.80 (sub 35) OBJ File: ''
# www.blender.org
mtllib ES_CAT_VNG_pasifae.mtl
o Cube
v 1.000000 0.680000 -3.000000
v 1.561728 -0.680000 -3.000000
v 1.000000 0.680000 3.000000
v 1.447563 -0.680000 3.463861
v -1.000000 0.680000 -3.000000
v -1.453080 -0.680000 -3.000000
v -1.000000 0.680000 3.000000
v -1.434837 -0.680000 3.427166
vt 0.375000 0.000000
vt 0.625000 0.000000
vt 0.625000 0.250000
vt 0.375000 0.250000
vt 0.375000 0.250000
vt 0.625000 0.250000
vt 0.625000 0.500000
vt 0.375000 0.500000
vt 0.625000 0.750000
vt 0.375000 0.750000
vt 0.625000 0.750000
vt 0.625000 1.000000
vt 0.375000 1.000000
vt 0.125000 0.500000
vt 0.375000 0.500000
vt 0.375000 0.750000
vt 0.125000 0.750000
vt 0.625000 0.500000
vt 0.875000 0.500000
vt 0.875000 0.750000
vn 0.0000 1.0000 0.0000
vn -0.0071 0.3113 0.9503
vn -0.9506 0.3105 0.0014
vn 0.0000 -1.0000 -0.0000
vn 0.9370 0.3492 0.0086
vn 0.0000 0.0000 -1.0000
usemtl Material
s off
f 1/1/1 5/2/1 7/3/1 3/4/1
f 4/5/2 3/6/2 7/7/2 8/8/2
f 8/8/3 7/7/3 5/9/3 6/10/3
f 6/10/4 2/11/4 4/12/4 8/13/4
f 2/14/5 1/15/5 3/16/5 4/17/5
f 6/18/6 5/19/6 1/20/6 2/11/6
o Cube.001_Cube.002
v 1.000000 3.278955 -3.000000
v 1.000000 0.728955 -3.000000
v 1.000000 3.278955 3.000000
v 1.000000 0.728955 3.000000
v -1.000000 3.278955 -3.000000
v -1.000000 0.728955 -3.000000
v -1.000000 3.278955 3.000000
v -1.000000 0.728955 3.000000
vt 0.375000 0.000000
vt 0.625000 0.000000
vt 0.625000 0.250000
vt 0.375000 0.250000
vt 0.375000 0.250000
vt 0.625000 0.250000
vt 0.625000 0.500000
vt 0.375000 0.500000
vt 0.625000 0.750000
vt 0.375000 0.750000
vt 0.625000 0.750000
vt 0.625000 1.000000
vt 0.375000 1.000000
vt 0.625000 0.500000
vt 0.875000 0.500000
vt 0.875000 0.750000
vt 0.000100 0.999900
vt 0.000100 0.000100
vt 0.999900 0.000100
vt 0.999900 0.999900
vn 0.0000 1.0000 0.0000
vn 0.0000 0.0000 1.0000
vn -1.0000 0.0000 0.0000
vn 0.0000 -1.0000 0.0000
vn 0.0000 0.0000 -1.0000
vn 1.0000 0.0000 0.0000
usemtl Material
s off
f 9/21/7 13/22/7 15/23/7 11/24/7
f 12/25/8 11/26/8 15/27/8 16/28/8
f 16/28/9 15/27/9 13/29/9 14/30/9
f 14/30/10 10/31/10 12/32/10 16/33/10
f 14/34/11 13/35/11 9/36/11 10/31/11
usemtl Material.001
f 10/37/12 9/38/12 11/39/12 12/40/12
