<?xml version="1.0" encoding="UTF-8" standalone="no"?>
<!-- Created with Inkscape (http://www.inkscape.org/) -->

<svg
   xmlns:dc="http://purl.org/dc/elements/1.1/"
   xmlns:cc="http://creativecommons.org/ns#"
   xmlns:rdf="http://www.w3.org/1999/02/22-rdf-syntax-ns#"
   xmlns:svg="http://www.w3.org/2000/svg"
   xmlns="http://www.w3.org/2000/svg"
   xmlns:sodipodi="http://sodipodi.sourceforge.net/DTD/sodipodi-0.dtd"
   xmlns:inkscape="http://www.inkscape.org/namespaces/inkscape"
   version="1.1"
   id="svg5084"
   width="527.35364"
   height="731.96808"
   viewBox="0 0 527.35364 731.96808"
   sodipodi:docname="parking_disabled_colors.svg"
   inkscape:export-filename="C:\Users\xd2018\Desktop\parking_disabled_yellow_big.png"
   inkscape:export-xdpi="40.189999"
   inkscape:export-ydpi="40.189999"
   inkscape:version="0.92.3 (2405546, 2018-03-11)">
  <metadata
     id="metadata5090">
    <rdf:RDF>
      <cc:Work
         rdf:about="">
        <dc:format>image/svg+xml</dc:format>
        <dc:type
           rdf:resource="http://purl.org/dc/dcmitype/StillImage" />
        <dc:title></dc:title>
      </cc:Work>
    </rdf:RDF>
  </metadata>
  <defs
     id="defs5088" />
  <sodipodi:namedview
     pagecolor="#ffffff"
     bordercolor="#666666"
     borderopacity="1"
     objecttolerance="10"
     gridtolerance="10"
     guidetolerance="10"
     inkscape:pageopacity="0"
     inkscape:pageshadow="2"
     inkscape:window-width="1366"
     inkscape:window-height="705"
     id="namedview5086"
     showgrid="false"
     inkscape:zoom="0.90028971"
     inkscape:cx="392.40942"
     inkscape:cy="641.39944"
     inkscape:window-x="-8"
     inkscape:window-y="-8"
     inkscape:window-maximized="1"
     inkscape:current-layer="layer2" />
  <g
     inkscape:groupmode="layer"
     id="layer1"
     inkscape:label="blanc"
     style="display:inline">
    <rect
       style="opacity:1;fill:#ffffff;fill-opacity:1;stroke:none;stroke-width:9.89567375;stroke-linecap:round;stroke-linejoin:round;stroke-miterlimit:4;stroke-dasharray:none;stroke-opacity:1"
       id="rect5679"
       width="499.83908"
       height="683.11346"
       x="12.218289"
       y="29.971828" />
  </g>
  <g
     inkscape:groupmode="layer"
     id="layer2"
     inkscape:label="Layer 2"
     style="display:inline">
    <path
       style="fill:#ff9410;stroke-width:1.33333337;fill-opacity:1"
       d="m 11.801944,731.52474 c -2.3787,-1.17268 -5.5287,-4.07984 -7,-6.46034 -2.6601,-4.3041 -2.675,-6.29067 -2.675,-356.63598 0,-393.816588 -0.9096,-358.8185481 9.4637,-364.1106281 4.9994,-2.55049 9.8491,-2.60016 253.869696,-2.60016 242.0095,0 248.9074,0.0691 253.7198,2.53977 2.7207,1.39687 6.1468,4.54687 7.6135,7.0000001 2.6487,4.43013 2.6667,6.83586 2.6667,356.460218 0,336.34078 -0.1067,352.1954 -2.3981,356.3923 -1.3189,2.41576 -4.3189,5.56352 -6.6667,6.99501 -4.1939,2.55723 -8.6395,2.60228 -254.2686,2.57735 C 39.742444,733.65938 15.718444,733.45549 11.801944,731.52474 Z M 252.12694,697.05717 c 14.9918,-3.12817 32.0143,-12.34633 44.5151,-24.1062 11.781,-11.08273 21.4849,-24.38872 21.4849,-29.46009 0,-3.17651 -11.0115,-30.10778 -13.6794,-33.45636 -2.1011,-2.63702 -4.5316,0.29774 -5.5558,6.70828 -2.6812,16.78254 -18.7408,37.88277 -35.1297,46.15584 -47.4239,23.93952 -101.8696,-8.33376 -102.0889,-60.51435 -0.1036,-24.66249 7.2411,-39.11507 29.5329,-58.1136 4.7361,-4.03649 5.5108,-5.38495 4.9791,-8.66667 -0.3464,-2.13752 -0.9938,-7.88857 -1.4387,-12.7801 -0.5123,-5.63228 -1.4708,-9.14768 -2.6137,-9.58627 -4.8997,-1.88016 -25.0148,12.77387 -37.2635,27.14664 -7.4014,8.68501 -15.828,25.23793 -19.0052,37.33333 -3.0786,11.72015 -3.0786,36.27986 0,48 5.27,20.06239 18.9977,40.94282 34.7546,52.86318 10.53,7.9661 27.247,16.01057 38.2093,18.3869 11.3996,2.47111 31.6841,2.51302 43.299,0.0895 z m 119.3334,-39.91201 c 12.8333,-5.60674 24.1561,-11.01582 25.1617,-12.02018 1.5488,-1.54685 1.1618,-3.27241 -2.5307,-11.2834 -2.3975,-5.20152 -5.1583,-9.45729 -6.1351,-9.45729 -0.9767,0 -8.1266,2.78128 -15.8886,6.18061 -8.0872,3.54176 -14.597,5.67655 -15.2469,5 -0.6238,-0.64933 -9.3633,-19.78061 -19.4211,-42.51394 -10.0578,-22.73334 -18.8822,-42.08334 -19.6097,-43 -1.0092,-1.27158 -11.5227,-1.66667 -44.3502,-1.66667 -47.2324,0 -44.6461,0.46976 -44.6461,-8.10905 v -3.89095 h 30.5034 c 24.5511,0 30.8064,-0.36505 32.056,-1.87077 0.9847,-1.18647 1.4102,-5.94174 1.1633,-13 l -0.3894,-11.12923 -31.9581,-0.35815 c -17.577,-0.19698 -32.3867,-0.79698 -32.9105,-1.33333 -0.7764,-0.79508 -5.1314,-42.36152 -5.1314,-48.97723 0,-1.03024 2.5699,-3.00993 5.7107,-4.39929 18.3928,-8.136 22.7653,-33.17649 8.3162,-47.62555 -11.1744,-11.17448 -29.8994,-11.58513 -41.1459,-0.90238 -10.8205,10.27814 -12.3804,26.92749 -3.6859,39.34273 l 3.9122,5.58653 4.7844,58 c 2.6314,31.9 4.7822,59.00715 4.7797,60.2381 0,1.23096 0.9382,3.18096 2.0905,4.33333 1.8234,1.82339 8.034,2.09524 47.866,2.09524 h 45.7707 l 19.5573,45.91885 c 10.7565,25.25538 20.2668,46.16923 21.134,46.47523 1.9871,0.70115 2.1884,0.62373 30.2435,-11.63321 z m -157.652,-351.00182 0.3481,-54.90761 46.3186,-0.51249 c 43.3854,-0.48004 46.9505,-0.70274 56.2968,-3.51674 32.5456,-9.79882 54.5374,-32.64618 64.9617,-67.48888 1.9104,-6.38548 2.3898,-12.70901 2.3755,-31.33333 -0.02,-26.29133 -1.4591,-33.81949 -9.556,-49.999996 -9.0486,-18.082472 -22.1289,-31.067912 -39.7594,-39.471202 -18.9986,-9.05539 -22.087,-9.30509 -110,-8.89375 l -78,0.36495 -0.3432,153.999998 c -0.1888,84.7 -0.054,154.76052 0.3004,155.69003 0.5009,1.31514 7.9711,1.6109 33.6766,1.33333 l 33.0329,-0.35669 z m 0.9237,-114.1054 c -0.3545,-0.92381 -0.4856,-20.27381 -0.2915,-43 l 0.3531,-41.32032 26,-0.3885 c 30.1309,-0.45024 45.5926,1.1836 56.2273,5.94153 9.0518,4.04979 12.0216,6.99559 15.9254,15.79692 2.3057,5.19815 2.9653,9.27 3.0214,18.65005 0.1712,28.65336 -10.8789,41.5762 -38.2415,44.72263 -16.9665,1.95097 -62.202,1.66208 -62.9942,-0.40231 z"
       id="path5641"
       inkscape:connector-curvature="0" />
  </g>
  <g
     id="g5637"
     transform="translate(-365.53973,9.7992327)" />
</svg>
